<svg width="376" height="377" viewBox="0 0 376 377" fill="none" xmlns="http://www.w3.org/2000/svg">
<path d="M174.333 0.466648C113.667 3.79998 62.3333 35.1333 27.9333 89.8C5.13332 125.933 -3.53334 170.467 3.13332 217.933C6.33332 241.133 16.8667 270.333 28.7333 288.867C41.5333 308.867 61.8 330.2 81.8 344.6C96.0667 354.733 104.067 358.6 115 360.333C149.133 365.8 180.867 340.333 194.467 296.6C199.133 281.933 199.667 274.067 199.667 232.6C199.667 210.467 200.067 192.333 200.733 192.333C201.267 192.333 205.4 196.733 209.933 201.933C214.333 207.267 224.067 218.867 231.533 227.667C239 236.467 245.533 243.667 246.067 243.667C246.733 243.667 256.733 232.067 268.333 217.933C279.8 203.933 289.8 192.333 290.333 192.333C290.867 192.333 291.667 200.867 292.2 211.267C292.6 221.8 293.4 238.333 293.8 248.067L294.733 265.667H309.4H324.067L323.133 237.4C322.733 221.8 321.933 186.867 321.533 159.667C321.133 132.6 320.733 110.2 320.467 110.067C320.333 109.8 293.4 141 258.467 182.067C251.667 189.933 245.667 196.067 244.867 195.667C244.2 195.133 234.733 184.467 223.933 171.933C213.133 159.267 203.267 147.933 201.933 146.6C199.533 144.2 199.133 144.733 190.733 162.6C170.6 204.867 168.867 212.2 169.267 248.333C169.533 274.867 167.533 285.4 158.867 301.667C142.333 333.133 119.4 339.533 92.8667 320.2C79.6667 310.467 64.3333 294.467 54.4667 279.8C36.2 252.867 27.9333 228.2 26.7333 197.533C25.5333 169.8 30.0667 145.4 40.6 120.867C61.5333 72.6 110.6 35.2666 164.2 26.8666C179.133 24.4666 206.867 26.2 223.667 30.4666C235.667 33.5333 240.867 34.0666 260.333 34.3333C272.867 34.4666 285.933 35.1333 289.533 35.6666C297.667 37 297 35.5333 286.6 28.7333C270.2 18.2 239.933 6.33331 221 2.86665C207.267 0.466648 190.867 -0.466686 174.333 0.466648Z" fill="#AFAFAF"/>
<path d="M262.333 47.9333C240.2 49.6666 217.133 59.6666 200.467 74.9999C181.667 92.1999 173.667 104.467 148.867 154.6C137.8 176.867 128.333 195 127.8 195C127.133 195 119.133 179 109.8 159.267C100.467 139.667 91.4 121 89.6667 117.667L86.6 111.667L71.1333 111.267C58.4667 111 55.6667 111.267 55.6667 112.867C55.6667 113.8 61.6667 127.4 69 143C76.3333 158.467 82.3333 171.4 82.3333 171.667C82.3333 171.8 87 181.933 92.7333 193.8C98.4667 205.8 108.467 227.267 115.133 241.267C121.667 255.4 127.4 267 127.8 267C128.733 267 138.467 246.467 159.667 199.667C188.867 135.267 194.867 125 216.2 103.533C237.4 82.3333 253.933 75.7999 278.867 78.9999C303.267 82.0666 322.6 97.1333 335.4 123.133C348.067 149 352.733 173.4 350.333 201.8C344.467 267.267 309.8 316.733 253.533 339.267C228.867 349.267 213.8 352.333 190.333 352.333H177.267L165.933 360.867C159.667 365.533 153.533 370.067 152.2 370.733C148.467 372.733 149.933 373.4 162.333 374.867C194.867 379 236.333 373.8 265.933 361.8C314.067 342.6 352.867 298.067 368.2 244.467C380.733 200.867 377 154.467 357.667 112.333C345.533 86.0666 335.933 73.1333 321.133 63.1333C305.267 52.4666 282.067 46.5999 262.333 47.9333Z" fill="#08D665"/>
</svg>
